<?xml version="1.0" encoding="UTF-8"?><svg id="Layer_2" xmlns="http://www.w3.org/2000/svg" viewBox="0 0 4623 4623"><defs><style>.cls-1,.cls-2{fill:#fff;fill-rule:evenodd;}.cls-3{opacity:.05;}.cls-2{isolation:isolate;opacity:.5;}</style></defs><g id="Layer_1-2"><g class="cls-3"><path class="cls-1" d="M2190.13,3.25l121.37,2308.79L1950.63,28.18l-238.41,50.95,599.28,2232.91L1483.56,152.84l-222.16,98.63,1050.09,2060.57L1052.26,372.88l-196.15,141.99,1455.39,1797.17L677.3,677.46l-162.55,179.94,1796.75,1454.65L372.79,1052.51l-121.38,210.28,2060.09,1049.25L153.88,1482.83l-75.85,230.88,2233.47,598.33L28.18,1950.01l-24.93,241.72,2308.25,120.32L3.25,2432.36l24.93,241.72,2283.32-362.04L78.03,2909.29l75.85,231.97,2157.62-829.22L251.41,3361.29l121.38,210.29,1938.71-1259.54L514.75,3765.6l162.55,181.02,1634.2-1634.58-1455.39,1796.09,196.15,143.08,1259.24-1939.17-1050.09,2059.49,222.16,98.63,827.94-2158.12-599.28,2231.83,238.41,50.95,360.87-2282.78-121.37,2308.79h242.75l-121.37-2308.79,360.87,2282.78,238.41-50.95-599.28-2231.83,827.94,2158.12,222.15-98.63-1050.09-2059.49,1258.16,1939.17,197.23-143.08-1455.39-1796.09,1634.2,1634.58,162.55-181.02-1796.75-1453.56,1938.71,1259.54,121.37-210.29-2060.08-1049.25,2157.62,829.22,74.77-231.97-2232.39-597.25,2283.32,362.04,24.93-241.72-2308.25-120.32,2308.25-120.32-24.93-241.72-2283.32,362.03,2232.39-598.33-74.77-230.88-2157.62,829.21,2060.08-1049.25-121.37-210.28-1938.71,1259.54,1796.75-1454.65-162.55-179.94-1634.2,1634.58L3766.89,514.87l-197.23-141.99-1258.16,1939.16L3361.59,251.47l-222.15-98.63-827.94,2159.2L2910.78,79.13l-238.41-50.95-360.87,2283.86L2432.87,3.25h-242.75Z"/><path class="cls-2" d="M2039.49,16.26l272.01,2295.78L1802.17,56.36l-234.08,66.13,743.41,2189.55L1344.85,211.37l-215.65,113.81,1182.3,1986.86L928.72,458.51l-186.39,155,1569.18,1698.53L574.35,786.94l-150.63,190.77,1887.78,1334.33L294.76,1181.49l-107.28,217.87,2124.02,912.68L104.03,1624.82l-59.6,236.3,2267.07,450.92L9.75,2099.59,0,2342.39l2311.5-30.35L15.17,2581.94l41.18,239.55,2255.15-509.45L122.46,3054.54l89.94,225.46,2099.1-967.96L324.02,3492.45l135.46,202.7,1852.02-1383.11L613.37,3879.42l174.47,170.18,1523.66-1737.56-1335.1,1887.14,205.9,130.07,1129.2-2017.21-913.55,2123.44,227.57,84.55,685.97-2207.99-451.9,2266.52,240.58,34.68,211.32-2301.2,29.26,2310.96,242.74-15.17-272.01-2295.79,509.33,2254.6,234.08-66.12-743.41-2188.48,966.65,2099.59,214.57-112.73-1181.22-1986.86,1382.78,1852.45,186.4-155-1569.18-1697.45,1737.15,1524.02,150.63-190.77-1887.78-1333.25,2016.74,1130.55,107.28-217.87-2124.02-912.68,2207.47,686.14,59.6-235.22-2267.07-450.92,2301.75,212.45,9.75-242.8-2311.5,30.35,2295.25-270.98-41.19-239.55-2254.06,510.54,2189.04-742.5-89.94-225.46-2099.1,967.96,1987.48-1181.49-135.46-202.7-1852.02,1384.19L4009.63,743.58l-174.47-170.18-1523.66,1738.64L3646.6,423.82l-205.9-128.99-1129.2,2017.21L3225.05,187.52l-228.66-83.46-684.89,2207.98L2763.4,44.44l-240.58-34.68-211.32,2302.28L2282.24,0l-242.74,16.26Z"/></g></g></svg>