<svg width="24" height="29" viewBox="0 0 24 29" fill="none" xmlns="http://www.w3.org/2000/svg">
<path d="M0 2V15.3333C0 20.9333 4.84293 26 12 28.6667C19.1573 26 24 20.9333 24 15.3333V2H0Z" fill="#95A5A6"/>
<path d="M0 0.666992V14.0003C0 19.6003 4.84293 24.667 12 27.3337C19.1573 24.667 24 19.6003 24 14.0003V0.666992H0Z" fill="#ECF0F1"/>
<path d="M0 0.666992V14.0003C0 19.6003 4.84293 24.667 12 27.3337V0.666992H0Z" fill="#BDC3C7"/>
<path d="M2.66602 3.33398V14.0006C2.66602 18.534 6.43282 22.534 11.9994 24.6673C17.566 22.534 21.3327 18.534 21.3327 14.0006V3.33398H2.66602Z" fill="#F39C12"/>
<path d="M12 3.33398V24.6673C17.5667 22.534 21.3333 18.534 21.3333 14.0006V3.33398H12Z" fill="#F1C40F"/>
<path d="M11.9993 6C11.2633 6 10.666 6.53333 10.666 7.33333L11.3327 16.6667H12.666L13.3327 7.33333C13.3327 6.53333 12.7353 6 11.9993 6ZM11.9993 18C11.2633 18 10.666 18.5333 10.666 19.3333C10.666 20 11.2633 20.6667 11.9993 20.6667C12.7353 20.6667 13.3327 20 13.3327 19.3333C13.3327 18.5333 12.7353 18 11.9993 18Z" fill="#34495E"/>
</svg>
