<svg width="210" height="77" viewBox="0 0 210 77" fill="none" xmlns="http://www.w3.org/2000/svg">
<path d="M23.9824 18.4919L34.1397 25.2908C34.8648 25.7696 35.7595 25.8513 36.5347 25.5533L47.8895 21.0417C49.8728 20.2456 51.9375 22.0947 51.3254 24.1432L48.0841 35.8859C47.8629 36.7117 48.0329 37.6106 48.5926 38.2347L56.4105 47.6307C57.7674 49.2902 56.6592 51.7747 54.5174 51.8645L42.2825 52.3475C41.4526 52.3779 40.6674 52.8313 40.1886 53.5564L33.6529 63.9107C32.5042 65.7206 29.7985 65.4381 29.0398 63.4332L24.8116 51.9647C24.5136 51.1895 23.8575 50.5712 23.0317 50.3499L11.1668 47.3288C9.06513 46.7972 8.51768 44.122 10.1988 42.8024L19.7833 35.2247C20.4664 34.6808 20.8056 33.8867 20.7535 33.0193L19.9815 20.8018C19.8542 18.6816 22.2099 17.3216 23.9824 18.4919Z" fill="#F7B31D"/>
<path d="M51.361 24.1221L48.0823 35.8864C47.8611 36.7121 48.0311 37.6111 48.5908 38.2352L50.6744 40.7215C48.1789 45.5525 44.3311 49.7682 39.2832 52.6826C35.2449 55.0141 30.8913 56.2813 26.5172 56.5632L24.8098 51.9652C24.7392 51.7566 24.6529 51.6071 24.5449 51.4201C24.1837 50.8808 23.6571 50.4869 23.03 50.3504L11.165 47.3293C10.8701 47.2502 10.591 47.1122 10.3493 46.9527C8.9581 46.0109 8.73447 43.8966 10.1754 42.7655L19.7599 35.1878C20.4056 34.6655 20.7822 33.8498 20.7301 32.9824L19.9797 20.8023C19.8309 18.6447 22.1865 17.2847 23.9806 18.4923L28.6967 21.6524L34.1379 25.2913C34.863 25.7701 35.7577 25.8518 36.5329 25.5538L41.5207 23.5715L47.9251 21.0206C49.9084 20.2245 51.9515 22.0362 51.361 24.1221Z" fill="#F9CE1B"/>
<path d="M41.5207 23.5715C42.0174 34.1033 36.7246 44.5378 26.9654 50.1722C26.1802 50.6256 25.3733 51.0415 24.5449 51.4201C24.1837 50.8808 23.6571 50.4869 23.03 50.3504L11.165 47.3293C10.8701 47.2502 10.591 47.1122 10.3493 46.9527C8.9581 46.0109 8.73447 43.8966 10.1754 42.7655L19.7599 35.1878C20.4056 34.6655 20.7822 33.8498 20.7301 32.9824L19.9797 20.8023C19.8309 18.6447 22.1865 17.2847 23.9806 18.4923L28.6967 21.6524L34.1379 25.2913C34.863 25.7701 35.7577 25.8518 36.5329 25.5538L41.5207 23.5715Z" fill="#FADB1B"/>
<path d="M28.7557 21.6682C29.1815 30.6955 24.6534 39.6913 16.2777 44.527C14.3707 45.628 12.3874 46.4241 10.3709 46.9901C8.97969 46.0483 8.75606 43.934 10.197 42.8029L19.7815 35.2252C20.4272 34.7029 20.8038 33.8872 20.7517 33.0198L19.9797 20.8023C19.8309 18.6447 22.1865 17.2847 23.9806 18.4923L28.7557 21.6682Z" fill="#F5E849"/>
<path d="M108.851 2.42858L117.846 20.706C118.493 22.0012 119.716 22.8647 121.084 23.0806L141.232 26.0309C144.758 26.5346 146.197 30.924 143.607 33.3706L129.143 47.6184C128.136 48.6258 127.632 50.0649 127.92 51.4322L131.374 71.5085C131.949 75.0345 128.279 77.6969 125.113 76.0419L107.052 66.5434C105.828 65.8958 104.317 65.8958 103.022 66.5434L84.9606 76.0419C81.7944 77.6969 78.1246 75.0345 78.7002 71.5085L82.1542 51.4322C82.3701 50.0649 81.9384 48.6258 80.9309 47.6184L66.3234 33.3706C63.7329 30.8521 65.1721 26.5346 68.698 26.0309L88.8463 23.0806C90.2855 22.8647 91.4368 22.0012 92.0845 20.706L101.151 2.42858C102.734 -0.737586 107.268 -0.737586 108.851 2.42858Z" fill="#F7B31D"/>
<path d="M143.679 33.3706L129.143 47.6184C128.136 48.6258 127.632 50.065 127.92 51.4322L128.855 56.7571C121.228 61.6502 112.161 64.5286 102.447 64.5286C94.6751 64.5286 87.3354 62.7296 80.7872 59.4915L82.1544 51.4322C82.2263 51.0724 82.2263 50.7845 82.2263 50.4247C82.1544 49.3454 81.7226 48.338 80.9311 47.6184L66.3235 33.3706C65.9638 33.0108 65.6759 32.5791 65.46 32.1474C64.2368 29.6288 65.6759 26.3907 68.6982 25.9589L88.8465 23.0087C90.2137 22.7928 91.437 21.9293 92.0846 20.634L101.151 2.42859C102.734 -0.80953 107.268 -0.80953 108.851 2.42859L113.024 10.9197L117.846 20.706C118.493 22.0012 119.717 22.8647 121.084 23.0806L129.935 24.3759L141.304 26.0309C144.83 26.5346 146.269 30.8521 143.679 33.3706Z" fill="#F9CE1B"/>
<path d="M129.935 24.3759C121.875 39.9908 105.541 50.6406 86.7597 50.6406C85.2486 50.6406 83.7374 50.5687 82.2263 50.4247C82.1544 49.3454 81.7226 48.338 80.9311 47.6184L66.3235 33.3706C65.9638 33.0109 65.6759 32.5791 65.46 32.1474C64.2368 29.6288 65.6759 26.3907 68.6982 25.9589L88.8465 23.0087C90.2137 22.7928 91.437 21.9293 92.0846 20.634L101.151 2.42859C102.734 -0.80953 107.268 -0.80953 108.851 2.42859L113.024 10.9197L117.846 20.706C118.493 22.0012 119.717 22.8647 121.084 23.0806L129.935 24.3759Z" fill="#FADB1B"/>
<path d="M113.096 10.9916C106.188 24.3759 92.1566 33.5865 76.0379 33.5865C72.368 33.5865 68.8421 33.0828 65.46 32.2193C64.2368 29.7008 65.6759 26.4627 68.6982 26.0309L88.8465 23.0806C90.2137 22.8647 91.437 22.0012 92.0846 20.706L101.151 2.42859C102.734 -0.80953 107.268 -0.80953 108.851 2.42859L113.096 10.9916Z" fill="#F5E849"/>
<path d="M190.022 20.8027L189.213 32.9986C189.161 33.866 189.538 34.6817 190.183 35.204L199.768 42.7817C201.449 44.1013 200.88 46.8139 198.8 47.3081L187.01 50.3724C186.184 50.5937 185.49 51.1904 185.23 51.9872L181.001 63.4557C180.243 65.4606 177.537 65.7431 176.388 63.9332L169.853 53.5789C169.411 52.8754 168.626 52.422 167.759 52.3699L155.524 51.887C153.382 51.7972 152.274 49.3127 153.631 47.6532L161.449 38.2572C161.971 37.6115 162.178 36.7341 161.957 35.9084L158.641 24.1225C158.051 22.0366 160.094 20.2249 162.077 21.021L173.432 25.5326C174.244 25.8522 175.102 25.7489 175.827 25.2701L186.022 18.4927C187.794 17.3224 190.15 18.6825 190.022 20.8027Z" fill="#F7B31D"/>
<path d="M198.834 47.3285L187.007 50.3713C186.181 50.5925 185.487 51.1892 185.227 51.986L184.115 55.0336C178.684 55.2879 173.109 54.0635 168.061 51.1491C164.023 48.8176 160.749 45.6808 158.317 42.0337L161.446 38.256C161.591 38.0906 161.677 37.9411 161.785 37.7541C162.072 37.1717 162.15 36.5186 161.954 35.9073L158.638 24.1213C158.559 23.8264 158.539 23.5157 158.557 23.2266C158.676 21.5509 160.396 20.3001 162.096 20.9824L173.45 25.494C174.226 25.792 175.12 25.7103 175.845 25.2316L186.019 18.4916C187.813 17.2839 190.168 18.6439 190.02 20.8015L189.641 26.4658L189.21 32.9975C189.158 33.8648 189.535 34.6805 190.18 35.2029L194.391 38.5312L199.802 42.8022C201.483 44.1217 200.936 46.797 198.834 47.3285Z" fill="#F9CE1B"/>
<path d="M194.391 38.5312C185.518 44.2273 173.836 44.8608 164.076 39.2263C163.291 38.773 162.527 38.2822 161.785 37.7541C162.072 37.1717 162.15 36.5186 161.954 35.9073L158.638 24.1213C158.559 23.8264 158.539 23.5157 158.557 23.2266C158.676 21.5509 160.396 20.3001 162.096 20.9824L173.45 25.494C174.226 25.792 175.12 25.7103 175.845 25.2316L186.019 18.4916C187.813 17.2839 190.168 18.6439 190.02 20.8015L189.641 26.4658L189.21 32.9975C189.158 33.8648 189.535 34.6805 190.18 35.2029L194.391 38.5312Z" fill="#FADB1B"/>
<path d="M189.657 26.5248C182.052 31.4072 171.997 31.9836 163.621 27.1479C161.714 26.0469 160.033 24.7274 158.535 23.264C158.655 21.5883 160.374 20.3375 162.074 21.0198L173.429 25.5314C174.204 25.8294 175.099 25.7477 175.824 25.2689L186.019 18.4916C187.813 17.2839 190.168 18.6439 190.02 20.8015L189.657 26.5248Z" fill="#F5E849"/>
</svg>
