<svg width="28" height="28" viewBox="0 0 28 28" fill="none" xmlns="http://www.w3.org/2000/svg">
<path d="M6.20478 16.3047L5.83778 18.1207L2.05078 21.9067L6.09278 25.9487L9.87878 22.1617L11.6938 21.7947L6.20478 16.3047Z" fill="#C77C58"/>
<path d="M27.001 0H22.271C22.005 0 21.751 0.105 21.564 0.293L7.29297 14.564L8.70697 15.978L9.65797 16.929L17.622 8.965C18.013 8.574 18.645 8.574 19.036 8.965C19.427 9.356 19.427 9.988 19.036 10.379L11.072 18.343L12.023 19.294L13.437 20.708L27.708 6.437C27.896 6.25 28.001 5.995 28.001 5.73V1C28.001 0.448 27.554 0 27.001 0Z" fill="#E4EDF2"/>
<path d="M2.05125 21.9068L1.70725 21.5628C1.31625 21.1718 0.68425 21.1718 0.29325 21.5628C-0.09775 21.9538 -0.09775 22.5858 0.29325 22.9768C1.54525 24.2288 3.77125 26.4548 5.02325 27.7068C5.21925 27.9018 5.47525 27.9998 5.73025 27.9998C5.98525 27.9998 6.24225 27.9018 6.43725 27.7068C6.82825 27.3158 6.82825 26.6838 6.43725 26.2928L6.09325 25.9488L2.05125 21.9068Z" fill="#FBC34E"/>
<path d="M19.0362 10.3791C19.4272 9.98812 19.4272 9.35612 19.0362 8.96512C18.6452 8.57412 18.0132 8.57412 17.6222 8.96512L9.6582 16.9291L11.0722 18.3431L19.0362 10.3791Z" fill="#8B9CA5"/>
<path d="M12.022 19.2937L11.071 18.3427L9.65698 16.9287L8.70598 15.9777L7.29199 14.5637L6.34098 13.6127L6.42998 13.5237C6.82098 13.1327 6.82098 12.5007 6.42998 12.1097C6.03898 11.7187 5.40698 11.7187 5.01598 12.1097L4.22098 12.9057C3.82998 13.2967 3.82998 13.9287 4.22098 14.3197L6.20598 16.3047L11.696 21.7947L13.681 23.7797C13.876 23.9747 14.132 24.0727 14.388 24.0727C14.644 24.0727 14.9 23.9747 15.095 23.7797L15.891 22.9837C16.282 22.5927 16.282 21.9607 15.891 21.5697C15.5 21.1787 14.868 21.1787 14.477 21.5697L14.388 21.6587L13.437 20.7077L12.022 19.2937Z" fill="#FBC34E"/>
</svg>
