<svg width="60" height="71" viewBox="0 0 60 71" fill="none" xmlns="http://www.w3.org/2000/svg">
<path d="M0 4V37.3333C0 51.3333 12.1073 64 30 70.6667C47.8933 64 60 51.3333 60 37.3333V4H0Z" fill="#95A5A6"/>
<path d="M0 0.666626V34C0 48 12.1073 60.6666 30 67.3333C47.8933 60.6666 60 48 60 34V0.666626H0Z" fill="#ECF0F1"/>
<path d="M0 0.666626V34C0 48 12.1073 60.6666 30 67.3333V0.666626H0Z" fill="#BDC3C7"/>
<path d="M6.66699 7.33325V33.9999C6.66699 45.3333 16.084 55.3333 30.0003 60.6666C43.917 55.3333 53.3337 45.3333 53.3337 33.9999V7.33325H6.66699Z" fill="#F39C12"/>
<path d="M30 7.33325V60.6666C43.9167 55.3333 53.3333 45.3333 53.3333 33.9999V7.33325H30Z" fill="#F1C40F"/>
<path d="M30.0003 14C28.1603 14 26.667 15.3333 26.667 17.3333L28.3337 40.6667H31.667L33.3337 17.3333C33.3337 15.3333 31.8403 14 30.0003 14ZM30.0003 44C28.1603 44 26.667 45.3333 26.667 47.3333C26.667 49 28.1603 50.6667 30.0003 50.6667C31.8403 50.6667 33.3337 49 33.3337 47.3333C33.3337 45.3333 31.8403 44 30.0003 44Z" fill="#34495E"/>
</svg>
