<?xml version="1.0" encoding="utf-8"?>
<!-- Generator: Adobe Illustrator 26.5.0, SVG Export Plug-In . SVG Version: 6.00 Build 0)  -->
<svg version="1.1" id="Layer_1" xmlns="http://www.w3.org/2000/svg" xmlns:xlink="http://www.w3.org/1999/xlink" x="0px" y="0px"
	 width="28px" height="28px" viewBox="0 0 28 28" style="enable-background:new 0 0 28 28;" xml:space="preserve">
<path style="fill-rule:evenodd;clip-rule:evenodd;fill:#FFFFFF;" d="M25.3,3.8c-0.3-0.3-0.9-0.3-1.2,0l-13,13
	c-0.3,0.3-0.9,0.3-1.2,0L4,10.9c-0.2-0.2-0.4-0.3-0.6-0.3c-0.2,0-0.5,0.1-0.6,0.3l-2.5,2.3C0.1,13.4,0,13.6,0,13.8
	c0,0.2,0.1,0.5,0.3,0.6l5.8,6c0.3,0.3,0.9,0.9,1.2,1.2l2.5,2.5c0.3,0.3,0.9,0.3,1.2,0L27.7,7.5c0.3-0.3,0.3-0.9,0-1.2L25.3,3.8z"/>
</svg>
