<?xml version="1.0" encoding="UTF-8"?><svg id="a" xmlns="http://www.w3.org/2000/svg" width="24" height="24" xmlns:xlink="http://www.w3.org/1999/xlink" viewBox="0 0 24 24"><defs><clipPath id="b"><rect y="1.33" width="24" height="21.33" style="fill:none;"/></clipPath></defs><g style="clip-path:url(#b);"><path d="M23.85,11.39c-2.26-4.41-6.73-7.39-11.85-7.39S2.4,6.99,.14,11.39c-.1,.19-.14,.4-.14,.61s.05,.42,.14,.61c2.26,4.41,6.73,7.39,11.86,7.39s9.6-2.98,11.85-7.39c.1-.19,.14-.4,.14-.61s-.05-.42-.14-.61Zm-11.85,6.61c-1.19,0-2.35-.35-3.33-1.01-.99-.66-1.76-1.6-2.21-2.69-.45-1.1-.57-2.3-.34-3.47,.23-1.16,.8-2.23,1.64-3.07,.84-.84,1.91-1.41,3.07-1.64,1.16-.23,2.37-.11,3.47,.34,1.1,.45,2.03,1.22,2.69,2.21,.66,.99,1.01,2.15,1.01,3.33,0,.79-.15,1.57-.46,2.3-.3,.73-.74,1.39-1.3,1.95-.56,.56-1.22,1-1.95,1.3-.73,.3-1.51,.46-2.3,.46Zm0-10c-.36,0-.71,.06-1.05,.16,.28,.38,.42,.86,.38,1.33-.04,.48-.24,.92-.58,1.26-.34,.34-.78,.54-1.26,.58s-.95-.1-1.33-.38c-.22,.81-.18,1.66,.11,2.44,.29,.78,.82,1.45,1.52,1.92,.69,.47,1.51,.7,2.35,.67,.83-.03,1.64-.31,2.3-.82,.66-.51,1.15-1.21,1.39-2.01s.23-1.65-.04-2.44c-.27-.79-.78-1.48-1.46-1.96-.68-.49-1.49-.75-2.33-.74Z" style="fill:#fff;"/></g></svg>