<?xml version="1.0" encoding="UTF-8"?><svg id="a" xmlns="http://www.w3.org/2000/svg" width="24" height="24" viewBox="0 0 24 24"><g id="b"><path  fill="white" d="M12,0C5.37,0,0,5.37,0,12s5.37,12,12,12,12-5.37,12-12S18.63,0,12,0Zm3.52,17.57c-.92,.92-2.16,1.43-3.45,1.43-.98,0-1.93-.29-2.74-.84-.81-.55-1.43-1.33-1.8-2.24-.36-.91-.44-1.91-.23-2.86s.71-1.82,1.42-2.49c.87-.82,3.02-2.3,2.69-5.56,3.91,2.6,5.86,5.21,1.95,9.12,.65,0,1.63,0,3.26-1.61,.18,.5,.33,1.04,.33,1.61,0,1.3-.51,2.54-1.43,3.45h0Z"/></g></svg>