<?xml version="1.0" encoding="UTF-8"?><svg id="a" xmlns="http://www.w3.org/2000/svg" width="24" height="24" viewBox="0 0 24 24"><g id="b"><path  fill="white" d="M18.17,6.12c-1.34,0-2.8,.71-4.34,2.12-.73,.66-1.36,1.37-1.83,1.94,0,0,0,.01,0,.01-1.66-1.94-3.91-4.07-6.13-4.07-2.6,.02-4.81,1.73-5.55,4.11-.09,.19-.14,.34-.14,.38-.1,.44-.16,.89-.16,1.37,.02,3.25,2.63,5.9,5.84,5.9,1.34,0,2.8-.71,4.34-2.12,.73-.66,1.37-1.37,1.84-1.95,0,0-.75-.85-1.57-1.76-.44,.55-1.09,1.3-1.82,1.97-1.37,1.25-2.27,1.51-2.78,1.51-1.93,0-3.5-1.58-3.5-3.54s1.55-3.51,3.49-3.53c.05,0,.12,0,.19,.01,1.21,.48,2.23,1.3,2.49,1.55,.9,.87,1.76,1.85,1.91,2.02l.02,.03c.83,.91,1.57,1.75,1.57,1.75l.02-.02c1.68,1.93,3.92,4.07,6.15,4.07,2.67-.02,4.94-1.85,5.61-4.35,.02-.07,.04-.11,.04-.14,.1-.44,.16-.89,.16-1.37-.02-3.26-2.63-5.9-5.84-5.9h0Zm-.1,9.41h.1c1.94-.02,3.5-1.61,3.5-3.54s-1.57-3.54-3.5-3.54c-.52,0-1.41,.25-2.78,1.51-.73,.67-1.37,1.41-1.82,1.96h0s.93,1.08,1.93,2.03c.27,.26,1.33,1.11,2.57,1.58h0Z" style="fill-rule:evenodd;"/></g></svg>