<?xml version="1.0" encoding="UTF-8"?><svg id="a" xmlns="http://www.w3.org/2000/svg" width="24" height="24" viewBox="0 0 24 24"><g id="b"><path  fill="white"  d="M1.71,6.86H22.29c.95,0,1.71-.77,1.71-1.71s-.77-1.71-1.71-1.71H1.71c-.95,0-1.71,.77-1.71,1.71s.77,1.71,1.71,1.71Zm20.57,3.43H1.71c-.95,0-1.71,.77-1.71,1.71s.77,1.71,1.71,1.71H22.29c.95,0,1.71-.77,1.71-1.71s-.77-1.71-1.71-1.71Zm0,6.86H1.71c-.95,0-1.71,.77-1.71,1.71s.77,1.71,1.71,1.71H22.29c.95,0,1.71-.77,1.71-1.71s-.77-1.71-1.71-1.71Z"/></g></svg>