<?xml version="1.0" encoding="UTF-8"?><svg id="a" xmlns="http://www.w3.org/2000/svg" width="24" height="24" viewBox="0 0 24 24"><g id="b"><g><path  fill="white"  d="M10.5,21s-1.5,0-1.5-1.5,1.5-6,7.5-6,7.5,4.5,7.5,6-1.5,1.5-1.5,1.5H10.5Zm6-9c1.19,0,2.34-.47,3.18-1.32s1.32-1.99,1.32-3.18-.47-2.34-1.32-3.18-1.99-1.32-3.18-1.32-2.34,.47-3.18,1.32c-.84,.85-1.32,1.99-1.32,3.18s.47,2.34,1.32,3.18,1.99,1.32,3.18,1.32Z"/><path fill="white"  d="M7.82,21c-.22-.47-.33-.98-.32-1.5,0-2.03,1.02-4.12,2.9-5.58-.94-.29-1.92-.43-2.9-.42C1.5,13.5,0,18,0,19.5s1.5,1.5,1.5,1.5H7.82Z" style="fill-rule:evenodd;"/><path  fill="white"  d="M6.75,12c.99,0,1.95-.4,2.65-1.1,.7-.7,1.1-1.66,1.1-2.65s-.4-1.95-1.1-2.65c-.7-.7-1.66-1.1-2.65-1.1s-1.95,.4-2.65,1.1c-.7,.7-1.1,1.66-1.1,2.65s.4,1.95,1.1,2.65,1.66,1.1,2.65,1.1Z"/></g></g></svg>