<?xml version="1.0" encoding="UTF-8"?><svg id="a" xmlns="http://www.w3.org/2000/svg" width="24" height="24" viewBox="0 0 24 24"><g id="b"><g><path  fill="white" d="M21.35,11.99l2.16-2.15c.15-.16,.28-.34,.36-.54s.13-.42,.13-.64-.05-.44-.13-.64c-.08-.2-.21-.39-.36-.54-.16-.16-.34-.28-.54-.36-.21-.08-.42-.13-.64-.13s-.44,.04-.64,.13c-.2,.08-.39,.21-.54,.36l-2.15,2.16-2.15-2.16c-.31-.31-.73-.49-1.18-.49s-.86,.18-1.18,.49c-.31,.31-.49,.74-.49,1.18s.18,.87,.49,1.18l2.16,2.15-2.16,2.15c-.15,.15-.28,.34-.36,.54-.09,.2-.13,.42-.13,.64s.04,.44,.13,.64c.08,.2,.21,.39,.36,.54,.16,.16,.34,.28,.54,.36,.21,.08,.42,.13,.64,.13s.44-.04,.64-.13c.21-.08,.39-.21,.54-.36l2.15-2.16,2.15,2.16c.15,.16,.33,.28,.54,.36,.2,.08,.42,.13,.64,.13s.43-.04,.64-.13c.2-.08,.38-.21,.54-.36,.15-.15,.28-.34,.36-.54,.09-.2,.13-.42,.13-.64s-.04-.44-.13-.64c-.08-.2-.21-.39-.36-.54l-2.16-2.15Z"/><path  fill="white" d="M13.84,17.66c-.69-.71-1.08-1.66-1.08-2.65s.39-1.95,1.08-2.65l.35-.34-.35-.34c-.58-.62-.93-1.43-.99-2.28-.06-.85,.17-1.69,.66-2.39,.48-.7,1.19-1.21,2.01-1.45s1.69-.2,2.48,.13V1.52c0-.27-.08-.54-.22-.77-.14-.23-.34-.42-.58-.55-.22-.13-.48-.2-.75-.2s-.52,.07-.75,.2L7.05,6.02H3c-.8,0-1.56,.32-2.12,.88C.33,7.46,0,8.23,0,9.02v6c0,.8,.32,1.56,.88,2.12,.56,.56,1.32,.88,2.12,.88H7.05l8.62,5.74c.23,.15,.49,.23,.76,.25,.27,0,.54-.05,.78-.18,.24-.13,.44-.32,.57-.55,.14-.23,.22-.5,.22-.77v-4.09c-.69,.29-1.45,.37-2.19,.24-.74-.13-1.42-.48-1.97-.99Z"/></g></g></svg>