<?xml version="1.0" encoding="UTF-8"?><svg id="a" xmlns="http://www.w3.org/2000/svg" width="24" height="24" viewBox="0 0 24 24"><path d="M19.93,4.91c-.33-.33-.67-.45-1.23-.45-.89,0-1.67,.78-1.67,1.67,0,.45,.22,.89,.45,1.23,1.45,1.45,2.23,3.35,2.23,5.47,0,4.35-3.46,7.81-7.81,7.81s-7.81-3.46-7.81-7.81c0-2.12,.89-4.13,2.34-5.47,.33-.33,.56-.78,.56-1.23,0-.89-.78-1.67-1.67-1.67-.45,0-.89,.22-1.23,.45C2.07,6.92,.84,9.71,.84,12.84c0,6.14,5.02,11.16,11.16,11.16s11.16-5.02,11.16-11.16c0-3.13-1.23-5.92-3.24-7.93Z" fill="white"/><path d="M12,8.93c1.23,0,2.23-1,2.23-2.23V2.23c0-1.23-1-2.23-2.23-2.23s-2.23,1-2.23,2.23V6.7c0,1.23,1,2.23,2.23,2.23Z" fill="white"/></svg>