<?xml version="1.0" encoding="utf-8"?>
<!-- Generator: Adobe Illustrator 26.5.0, SVG Export Plug-In . SVG Version: 6.00 Build 0)  -->
<svg version="1.1" id="Layer_1" xmlns="http://www.w3.org/2000/svg" xmlns:xlink="http://www.w3.org/1999/xlink" x="0px" y="0px"
	 width="28px" height="28px" viewBox="0 0 28 28" style="enable-background:new 0 0 28 28;" xml:space="preserve">
<path style="fill:#FFFFFF;" d="M27.7,23.5l-9.6-9.6l9.6-9.5c0.4-0.4,0.4-1,0-1.4L25,0.3C24.8,0.1,24.5,0,24.3,0
	c-0.3,0-0.5,0.1-0.7,0.3L14,9.7L4.4,0.3C4.3,0.1,4,0,3.7,0C3.5,0,3.2,0.1,3,0.3L0.3,3c-0.4,0.4-0.4,1,0,1.4l9.6,9.5l-9.6,9.6
	C0.1,23.7,0,24,0,24.2c0,0.3,0.1,0.5,0.3,0.7l2.7,2.7C3.3,27.9,3.5,28,3.8,28c0.3,0,0.5-0.1,0.7-0.3l9.5-9.6l9.5,9.6
	c0.2,0.2,0.5,0.3,0.7,0.3c0.3,0,0.5-0.1,0.7-0.3l2.7-2.7c0.2-0.2,0.3-0.4,0.3-0.7C28,24,27.9,23.7,27.7,23.5z"/>
</svg>
