<?xml version="1.0" encoding="UTF-8"?><svg id="a" xmlns="http://www.w3.org/2000/svg" width="24" height="24" viewBox="0 0 24 24"><g id="b"><g><path  fill="white" d="M10.45,20.88h-3.42l-1.8-3.36-1.81,3.36H0l3.28-5.69L.19,9.94H3.58l1.64,3.09,1.66-3.09h3.36l-3.08,5.3,3.3,5.64h-.01Z"/><path  fill="white" d="M19.18,16.77h4.82v4.11H11.11v-1.04c2.45-2.9,4.18-4.99,5.21-6.28,1.04-1.3,1.75-2.29,2.14-2.97s.57-1.28,.57-1.8c0-.47-.14-.84-.42-1.12-.28-.29-.63-.44-1.07-.44-.21,0-.4,.03-.57,.08-.16,.03-.29,.1-.42,.21-.12,.1-.23,.23-.31,.36-.09,.12-.16,.28-.21,.47-.05,.17-.08,.36-.08,.57v.34h-4.56v-.34c0-1.75,.54-3.16,1.61-4.22,1.09-1.06,2.58-1.59,4.45-1.59s3.33,.51,4.48,1.54c1.16,1.02,1.74,2.35,1.74,3.98,0,1.11-.3,2.22-.91,3.33-.59,1.11-1.79,2.71-3.59,4.79v.02Z"/></g></g></svg>